<?xml version="1.0" encoding="UTF-8"?>
<svg id="Layer_1" data-name="Layer 1" xmlns="http://www.w3.org/2000/svg" xmlns:xlink="http://www.w3.org/1999/xlink" viewBox="0 0 1139 244.12">
  <defs>
    <style>
      .cls-1 {
        fill: #01a880;
        font-family: AvantGardeLT-Book, 'ITC Avant Garde Gothic LT Book';
        font-size: 17.99px;
      }

      .cls-2 {
        fill: url(#linear-gradient-2);
      }

      .cls-3 {
        fill: #fff;
      }

      .cls-4 {
        fill: url(#linear-gradient-6);
      }

      .cls-5 {
        fill: url(#linear-gradient-5);
      }

      .cls-6 {
        opacity: .41;
      }

      .cls-7 {
        fill: url(#linear-gradient-7);
      }

      .cls-8 {
        fill: url(#linear-gradient-9);
      }

      .cls-9 {
        fill: url(#linear-gradient-3);
      }

      .cls-10 {
        fill: url(#linear-gradient);
      }

      .cls-11 {
        fill: url(#linear-gradient-4);
      }

      .cls-12 {
        fill: url(#linear-gradient-8);
      }
    </style>
    <linearGradient id="linear-gradient" x1="241.54" y1="15.97" x2="400.42" y2="174.86" gradientUnits="userSpaceOnUse">
      <stop offset="0" stop-color="#03cc9a"/>
      <stop offset=".37" stop-color="#04ce9b"/>
      <stop offset="1" stop-color="#018b6a"/>
    </linearGradient>
    <linearGradient id="linear-gradient-2" x1="534.81" y1="60.45" x2="707.51" y2="233.15" xlink:href="#linear-gradient"/>
    <linearGradient id="linear-gradient-3" x1="440.37" y1="109.88" x2="529.1" y2="198.62" xlink:href="#linear-gradient"/>
    <linearGradient id="linear-gradient-4" x1="763.85" y1="86.56" x2="885.9" y2="208.6" xlink:href="#linear-gradient"/>
    <linearGradient id="linear-gradient-5" x1="487.25" y1="5.4" x2="511.61" y2="29.76" xlink:href="#linear-gradient"/>
    <linearGradient id="linear-gradient-6" x1="1022.54" y1="68.06" x2="1075.6" y2="121.12" xlink:href="#linear-gradient"/>
    <linearGradient id="linear-gradient-7" x1="46.38" y1="125.49" x2="174.28" y2="253.38" xlink:href="#linear-gradient"/>
    <linearGradient id="linear-gradient-8" x1="1016.41" y1="168.99" x2="1082.83" y2="235.4" xlink:href="#linear-gradient"/>
    <linearGradient id="linear-gradient-9" x1="888.52" y1="91.4" x2="1001.95" y2="204.83" gradientUnits="userSpaceOnUse">
      <stop offset="0" stop-color="#dadada"/>
      <stop offset=".32" stop-color="#d9d9d9"/>
      <stop offset=".67" stop-color="#cbcccc"/>
      <stop offset="1" stop-color="#a6a7a7"/>
    </linearGradient>
  </defs>
  <g>
    <path class="cls-10" d="M200.69,58.95c1.71-.2,3.3,.59,4.74,1.41,22.72,13.34,45.48,26.6,68.21,39.92,6.66,3.76,13.05,8.09,20.23,10.81,17.68,7.05,38.04,6.79,55.59-.56,5.64-2.24,10.73-5.58,15.99-8.59,22.73-13.32,45.48-26.6,68.22-39.92,2.64-1.46,5.37-3.74,8.59-2.93,4,.76,5.9,5.96,3.46,9.21-25.5,43.76-51.08,87.48-76.59,131.24-4.23,6.91-7.73,14.42-13.56,20.19-7.06,6.76-16.1,11.51-25.72,13.29-15.81,3.26-32.81-2.64-44.09-13.97-3.31-3.52-5.97-7.59-8.41-11.74-26.08-44.7-52.16-89.4-78.28-134.08-1.36-2.41-3.02-4.71-3.81-7.39-.78-3.3,2.07-6.84,5.45-6.88Z"/>
    <path class="cls-2" d="M536.05,60.07c2-.74,4.08,.21,5.83,1.16,24.09,13.73,48.29,27.24,72.41,40.91,7.56,4.47,15.66,8.7,24.55,9.5,4.72,.07,9.45,.16,14.17-.06,16.35-2.19,31.12-13.19,38.24-28.04,2.76-5.89,5.04-12,6.97-18.21,.63-2.01,1.62-4.19,3.71-5.02,3.76-1.95,8.66,1.49,8.41,5.65,.03,53.77-.01,107.54,.02,161.31,.27,3.22-2.27,6.34-5.48,6.71-1.99,.06-3.76-1.04-5.46-1.9-23.12-13.16-46.34-26.14-69.48-39.27-6.81-3.74-13.46-8.16-21.18-9.8-17.16-4.38-36.5,1.07-48.62,14.05-8.89,8.72-12.86,20.88-16.67,32.41-.71,2.51-3.09,4.22-5.62,4.49-3.36-.28-6.17-3.31-6.09-6.7-.05-53.54,0-107.1-.03-160.65-.21-2.84,1.65-5.57,4.31-6.53Z"/>
    <path class="cls-9" d="M490.12,61.36c3.5-.83,7.34,2.26,7.22,5.89,.02,53.54,0,107.1,0,160.64,.11,2.85-2.19,5.36-4.86,6.03-2.73,.48-5.08-1.29-7.35-2.5-16.81-9.51-33.63-19.01-50.46-28.49-4.3-2.45-9.13-4.67-11.78-9.1-4.05-6.03-4.23-14.26-.41-20.46,21.17-36.23,42.29-72.49,63.48-108.71,.91-1.58,2.36-2.84,4.15-3.3Z"/>
    <path class="cls-11" d="M819.69,61.42c25.95-1.75,52.33,9.3,69.58,28.72,15.62,17.69,23.8,41.88,21.44,65.41-2.32,25.07-16.03,49.08-37.04,63.11-14.64,10.2-32.51,15.42-50.31,15.32-14.4-.48-28.74-4.25-41.27-11.44-7.02-4.18-13.64-9.12-19.31-15.02-7.21-7.44-12.91-16.28-17.09-25.74-11.36-25.77-8.84-57.08,6.54-80.69,14.39-23.04,40.37-38.15,67.45-39.68Z"/>
    <path class="cls-5" d="M498.4,.39c5.18-.35,10.44,1.86,13.88,5.73,3.12,3.53,4.75,8.36,4.28,13.05-.46,5-3.2,9.79-7.39,12.59-2.92,2.03-6.49,3.08-10.04,3.06-2.87-.1-5.73-.85-8.23-2.28-1.4-.83-2.72-1.82-3.85-3-1.44-1.48-2.58-3.25-3.41-5.14-2.27-5.14-1.76-11.39,1.3-16.1,2.87-4.6,8.06-7.61,13.46-7.92Z"/>
    <path class="cls-4" d="M1074.55,67.02c1.96-1.11,3.83-2.43,5.97-3.19,3.39-1.15,7.36,1.69,7.5,5.25,.17,1.72-.68,3.3-1.45,4.77-9.76,16.6-19.4,33.27-29.15,49.88-3.89,6.81-6.38,14.48-6.76,22.34-1.64-2.97-2.28-6.46-4.45-9.15-2.21-3.19-5.52-5.33-8.87-7.15-13.26-7.67-26.42-15.49-39.66-23.19-2.8-1.74-5.89-3.08-8.37-5.3,5.74,.82,11.54,.54,17.31,.51,10.27-.76,19.28-6.19,27.89-11.37,13.34-7.81,26.67-15.62,40.03-23.41Z"/>
    <path class="cls-7" d="M121.1,66.58c18.54-1.91,37.89,7.84,46.95,24.21,14.39,24.49,28.63,49.06,42.97,73.57,4.73,7.96,7.23,17.29,6.82,26.57-.32,12.57-5.9,24.77-14.76,33.63-7.01,6.64-15.95,11.1-25.38,13.07-7.54,1.97-15.42,1.94-23.14,1.48-13.42-1.44-26.44-6.6-37.07-14.93-10.83-8.78-24.16-14.57-38.04-16.03-5.4-.19-10.81-.12-16.2-.04-17.13,1.66-33.56,9.73-45.33,22.29-2.97,2.71-5.14,6.09-7.74,9.12-2.76,3.18-8.56,1.89-9.84-2.08-1.28-3.42,1.32-6.49,2.87-9.3,26.77-45.79,53.46-91.61,80.2-137.42,7.77-13.47,22.23-22.63,37.68-24.13Z"/>
    <path class="cls-12" d="M1047.52,158.44c1.3-2.27,1.93-4.86,3.2-7.15,.58,7.51,2.61,14.95,6.34,21.51,9.91,16.85,19.69,33.79,29.64,50.62,.82,1.48,1.64,3.11,1.37,4.87-.25,4.26-5.79,6.92-9.25,4.38-16.38-9.52-32.73-19.1-49.1-28.65-6.42-4.18-13.59-7.27-21.19-8.42-6-1.14-12.1-.97-18.13-.62,2.91-2.86,6.73-3.82,10.15-5.96,12.97-7.52,25.88-15.12,38.83-22.67,3.31-1.9,6.27-4.53,8.13-7.91Z"/>
  </g>
  <path class="cls-8" d="M918.97,62.21c2.32-.56,4.6,.32,6.51,1.6,36.89,21.61,73.81,43.17,110.71,64.76,3.55,2.16,7.56,3.94,10.1,7.39,3.79,4.72,5.24,11.25,3.64,17.11-1.31,5.26-4.99,9.75-9.71,12.37-38.69,22.6-77.34,45.28-116.06,67.83-4.49,3.24-11.23-1.28-9.91-6.67,1.63-4.48,4.64-8.36,6.88-12.57,8.02-13.76,16.08-27.49,24.08-41.27,8.45-14.76,8.53-33.83,.3-48.69-10.12-17.31-20.23-34.63-30.31-51.96-2.4-3.52-.47-8.93,3.76-9.9Z"/>
  <text class="cls-1" transform="translate(1114.8 78.59)"><tspan x="0" y="0">TM</tspan></text>
  <g class="cls-6">
    <path class="cls-3" d="M507.99,.28c9.28-1.75,19.09,4.8,21.18,13.99,2.73,9.64-3.95,20.52-13.68,22.66-9.6,2.74-20.49-3.97-22.58-13.68-2.95-10.14,4.71-21.48,15.09-22.97Zm-.5,1.66c-6.38,1.32-11.79,6.56-13.19,12.94-1.46,5.79,.52,12.27,4.91,16.3,3.09,3.1,7.45,4.7,11.77,4.87,4.91-.14,9.81-2.26,13.01-6.05,2.58-2.9,3.92-6.71,4.32-10.53,.12-6.42-3.45-12.86-9.2-15.86-3.54-1.79-7.72-2.79-11.62-1.68Z"/>
    <path class="cls-3" d="M211.64,58.99c1.98-.52,4.16-.32,5.92,.77,24.01,14.07,48.05,28.1,72.07,42.16,6.36,3.74,12.72,7.64,19.76,10,19.41,6.91,41.72,4.85,59.55-5.49,26.61-15.54,53.21-31.1,79.8-46.67,2.83-1.76,6.72-1.21,9.09,1.08,2.7,2.45,2.93,6.85,1.06,9.86-26.16,44.81-52.33,89.62-78.49,134.42-2.18,3.62-4.12,7.39-6.64,10.8-6.07,8.19-14.61,14.56-24.29,17.81-12.22,4.19-26.06,3.48-37.74-2.07-9.45-4.38-17.35-11.86-22.53-20.87-26.83-45.91-53.62-91.84-80.44-137.76-1.13-2.01-2.69-4.03-2.53-6.47-.36-3.43,2.18-6.63,5.4-7.56Zm.14,1.53c-2.46,.88-4.34,3.4-4.18,6.05,0,1.57,.91,2.93,1.63,4.26,26.35,45.09,52.66,90.2,79,135.3,2.33,4,4.62,8.08,7.69,11.57,7.36,8.72,17.88,14.71,29.15,16.54,19.23,3.62,39.99-6.06,49.91-22.87,27.38-46.84,54.71-93.71,82.08-140.56,.85-1.53,1.85-3.14,1.62-4.97-.23-4.07-5.31-7.29-8.9-4.91-26.93,15.65-53.77,31.45-80.68,47.13-11.21,6.38-24.12,9.43-36.97,9.5-8.29-.43-16.61-1.68-24.4-4.64-7.69-2.74-14.56-7.24-21.6-11.3-22.95-13.43-45.91-26.84-68.86-40.28-1.64-.99-3.67-1.78-5.52-.83Z"/>
    <path class="cls-3" d="M546.61,60.15c2.07-.76,4.43-.6,6.36,.45,26.13,14.76,52.3,29.48,78.44,44.23,7.71,4.39,16.52,7.24,25.47,6.91,19.03,.42,37.39-11.88,44.76-29.36,2.59-5.65,4.59-11.55,6.5-17.47,1.07-3.56,4.98-6,8.65-5.17,3.44,.63,6.34,3.9,6.12,7.47,.04,53.77,0,107.55,.02,161.32,.33,3.65-2.41,7.2-6.02,7.77-2.03,.25-4.15,.05-5.91-1.05-25.17-14.22-50.35-28.41-75.53-42.63-2.65-1.49-5.26-3.07-8.06-4.26-12.15-5.33-26.49-5.38-38.67-.1-9.13,3.85-16.96,10.61-22.24,18.98-4.66,7.62-7.19,16.27-10.17,24.62-1.69,4.73-8.4,6.05-12.01,2.78-1.83-1.47-2.66-3.83-2.5-6.13,.04-53.76-.03-107.53,.03-161.29-.27-3.12,2-5.93,4.77-7.08Zm167.43,1.12c-1.99,.43-3.69,1.93-4.36,3.85-3.26,9.53-6.23,19.46-12.29,27.67-7.31,10.1-18.6,17.2-30.82,19.59-9.27,1.59-19.07,1.1-27.86-2.39-4.06-1.52-7.82-3.69-11.57-5.83-24.9-14.05-49.82-28.08-74.71-42.14-3.8-2.31-9.46,.57-9.15,5.18,0,52.28,0,104.55,0,156.82,.03,2.13-.16,4.28,.17,6.39,.68,2.5,3.07,4.38,5.63,4.6,2.79,.1,5.52-1.9,6.18-4.65,1.98-6.56,4.44-12.98,7.36-19.18,3.72-7.67,9.44-14.35,16.41-19.23,8.71-6.2,19.45-9.26,30.09-9.2,7.93,.43,15.84,2.3,22.83,6.16,26.39,14.9,52.78,29.79,79.17,44.69,1.96,1.19,4.43,2.01,6.64,.96,1.97-1.01,3.81-2.98,3.64-5.34,0-54-.01-108,0-162,.33-3.84-3.76-6.87-7.37-5.94Z"/>
    <path class="cls-3" d="M500.8,61.56c4.85-1.58,10.17,2.55,9.91,7.62,0,36.15,0,72.29,0,108.43-.03,15.26,.08,30.52-.15,45.78-.19,3.54,.86,7.8-1.88,10.63-2.43,2.89-6.98,3.08-10.08,1.22-17.6-9.97-35.24-19.87-52.84-29.83-3.25-1.86-6.7-3.5-9.39-6.17-4.11-3.86-6.56-9.51-6.2-15.18-.22-4.12,1.33-8.06,3.47-11.49,20.25-34.63,40.46-69.28,60.69-103.92,1.59-2.78,3.09-6.18,6.47-7.09Zm.12,1.54c-1.59,.56-2.75,1.86-3.54,3.3-21.05,36.16-42.21,72.25-63.26,108.41-4.31,7.1-3.09,16.8,2.61,22.78,2.36,2.5,5.47,4.06,8.4,5.76,18.02,10.15,36.02,20.32,54.04,30.47,1.83,1.12,4.15,1.7,6.18,.77,1.94-.96,3.71-2.84,3.67-5.12,.03-53.6-.01-107.2,.02-160.79,.21-3.96-4.51-7.19-8.13-5.58Z"/>
    <path class="cls-3" d="M827.97,61.5c6.66-.16,13.39-.48,20,.6,22.41,3.02,43.2,15.43,56.94,33.32,11.62,15.07,18.33,34.07,17.98,53.15,.55,23.7-9.69,47.29-26.89,63.52-18.38,18.01-45.11,26.89-70.61,23.74-23.96-2.56-46.43-15.81-60.56-35.29-13.85-18.76-19.64-43.22-15.68-66.2,3.69-22.8,16.94-43.86,35.87-57.1,12.57-8.97,27.58-14.4,42.96-15.74Zm-2.26,1.77c-15.86,1.74-31.14,8.13-43.63,18.04-16.67,13.15-28.19,32.63-31.52,53.62-3.87,23.08,2.23,47.62,16.54,66.15,14.38,19.02,36.98,31.55,60.75,33.53,23.45,2.29,47.69-5.88,65.13-21.72,18.6-16.5,29.41-41.45,28.52-66.31-.4-23.98-11.64-47.53-29.91-63.05-17.85-15.53-42.39-23.17-65.88-20.26Z"/>
    <path class="cls-3" d="M926.79,62.81c2.21-.57,4.71-.52,6.71,.7,17.67,10.29,35.27,20.69,52.97,30.93,15,8.78,34.67,8.47,49.48-.61,17.25-10.09,34.51-20.17,51.74-30.28,1.96-1.24,4.43-1.3,6.65-.79,4.31,1.42,6.57,6.97,4.18,10.93-10.02,17.31-20.2,34.54-30.21,51.87-8.29,14.52-8.29,33.34,.06,47.84,10,17.3,20.2,34.49,30.18,51.8,2.08,3.54,.54,8.4-3.03,10.3-2.51,1.45-5.78,1.11-8.17-.42-17.49-10.24-34.99-20.46-52.48-30.7-14.66-8.55-33.87-8.58-48.5,.06-17.55,10.2-35.06,20.47-52.57,30.74-1.39,.8-2.96,1.32-4.58,1.2-3.84,.11-7.37-3.32-7.29-7.18-.33-3.2,1.86-5.75,3.32-8.37,9.28-15.93,18.62-31.83,27.87-47.77,6.85-12.23,7.96-27.44,3.1-40.57-1.78-5.02-4.75-9.47-7.36-14.06-8.62-14.79-17.28-29.57-25.88-44.37-2.43-3.94-.65-9.71,3.81-11.24Zm.22,1.52c-2.03,1.02-3.78,3.09-3.62,5.47-.21,2.16,1.17,3.96,2.18,5.74,8.19,13.98,16.34,27.99,24.51,41.97,2.51,4.44,5.42,8.69,7.2,13.5,4.78,12.05,4.6,25.9-.43,37.84-1.51,3.72-3.67,7.13-5.68,10.6-8.01,13.72-16.02,27.43-24.02,41.14-1.3,2.61-3.6,4.94-3.75,7.98-.48,4.09,4.37,7.75,8.15,5.99,3.53-1.67,6.77-3.89,10.19-5.78,35.31-20.65,70.61-41.31,105.92-61.94,2.38-1.38,4.75-2.91,6.51-5.07,4.05-4.81,5.55-11.65,3.74-17.69-1.28-4.58-4.4-8.56-8.45-11.02-38.87-22.73-77.73-45.45-116.6-68.19-1.72-1.08-3.96-1.24-5.84-.54Zm158.43,2.29c-16.69,9.77-33.36,19.54-50.06,29.28-11.69,6.67-26.08,8.1-38.97,4.42,17.34,10.08,34.62,20.26,51.96,30.34,8.37,3.96,13.54,13.91,11.33,23-1.14,5.82-5,10.92-10.14,13.81-13.47,7.88-26.95,15.76-40.42,23.64-4.36,2.45-8.53,5.29-13.1,7.33-.02,.15-.06,.45-.08,.61,2.28-1.37,4.96-1.72,7.56-2.08,11.53-1.78,23.62,.85,33.54,6.94,17.27,10.08,34.49,20.27,51.82,30.25,4.36,2.95,10.55-2.07,8.83-6.96-1.64-3.95-4.2-7.44-6.24-11.19-7.77-13.3-15.52-26.61-23.31-39.9-9.53-15.19-10.11-35.56-1.23-51.18,9.37-16.2,18.85-32.34,28.28-48.51,1.22-2.21,3.05-4.46,2.7-7.15-.27-2.98-2.99-5.56-6.04-5.34-2.45-.1-4.41,1.59-6.44,2.69Z"/>
    <path class="cls-3" d="M133.4,66.56c5.12-.08,10.32-.41,15.34,.77,12.2,2.49,23.43,9.67,30.66,19.83,1.86,2.51,3.34,5.27,4.92,7.96,13.14,22.53,26.3,45.06,39.44,67.59,8.7,13.28,10.71,30.66,5,45.5-4.2,11.3-12.67,20.91-23.26,26.64-9.04,4.91-19.38,6.67-29.54,7.25-16.78,.11-33.67-5.3-46.83-15.82-9.15-7.44-20.17-12.5-31.74-14.7-6.18-1.37-12.52-1.19-18.81-1.07-20.98,1.52-41.07,12.74-53.14,30.01-1.77,2.76-5.36,4.38-8.55,3.22-4.4-1.25-7.09-6.92-4.53-10.93,25.45-43.6,50.89-87.21,76.35-130.82,4.01-6.67,7.49-13.78,12.83-19.54,8.24-8.91,19.78-14.7,31.86-15.9Zm-1.07,1.6c-15.36,1.92-29.34,11.58-36.78,25.12-27.14,46.46-54.24,92.93-81.35,139.4-1.26,2.03-1.54,4.81-.24,6.89,1.37,2.24,4.21,3.34,6.73,2.62,2.19-.45,3.44-2.48,4.71-4.12,14.08-19.01,37.84-30.39,61.51-29.1,15.43,.4,30.61,6.16,42.66,15.77,19.12,15.53,46.49,20.14,69.55,11.39,11.19-4.25,20.67-12.81,26.04-23.51,5.89-11.45,6.91-25.28,2.86-37.49-2.17-6.89-6.42-12.81-9.9-19.06-12.3-21.07-24.59-42.14-36.89-63.21-6.49-11.72-18.03-20.54-31.07-23.64-5.81-1.52-11.9-1.7-17.84-1.04Z"/>
  </g>
</svg>